<?xml version="1.0" encoding="iso-8859-1"?>
<!-- Generator: Adobe Illustrator 19.0.0, SVG Export Plug-In . SVG Version: 6.00 Build 0)  -->
<svg version="1.1" id="Layer_1" xmlns="http://www.w3.org/2000/svg" xmlns:xlink="http://www.w3.org/1999/xlink" x="0px" y="0px"
	 viewBox="0 0 501.802 501.802" style="enable-background:new 0 0 501.802 501.802;" xml:space="preserve">
<g>
	<ellipse style="fill:#ED751B;" cx="192.705" cy="470.101" rx="16.8" ry="30.4"/>
	<ellipse style="fill:#ED751B;" cx="309.505" cy="470.101" rx="16.8" ry="30.4"/>
</g>
<path style="fill:#1E4784;" d="M43.905,218.101c29.6-51.2,55.2-71.2,69.6-63.2c13.6,8,10.4,40-19.2,92
	c-30.4,52-76.8,107.2-90.4,99.2S14.305,270.101,43.905,218.101z"/>
<g>
	<path style="fill:#00233F;" d="M113.505,154.901c13.6,8,10.4,40-19.2,92c-30.4,52-76.8,107.2-90.4,99.2"/>
	<path style="fill:#00233F;" d="M458.305,218.101c-29.6-51.2-55.2-71.2-69.6-63.2c-13.6,8-10.4,40,19.2,92s76,107.2,89.6,99.2
		C511.905,338.101,487.905,270.101,458.305,218.101z"/>
</g>
<path style="fill:#1E4784;" d="M388.705,154.901c-13.6,8-10.4,40,19.2,92s76,107.2,89.6,99.2"/>
<path style="fill:#2264B2;" d="M448.705,289.301c0,132-88.8,197.6-197.6,197.6s-197.6-66.4-197.6-197.6s88.8-288,197.6-288
	S448.705,157.301,448.705,289.301z"/>
<path style="fill:#1E4784;" d="M53.505,289.301c0-132,88.8-288,197.6-288s197.6,156,197.6,288s-88.8,197.6-197.6,197.6"/>
<path style="fill:#00233F;" d="M251.105,1.301c108.8,0,197.6,156,197.6,288s-88.8,197.6-197.6,197.6"/>
<path style="fill:#FFFFFF;" d="M95.105,253.301c0-91.2,70.4-137.6,156-137.6c86.4,0,156,45.6,156,137.6s-70.4,200-156,200
	C164.705,453.301,95.105,345.301,95.105,253.301z"/>
<path style="fill:#E5F2F9;" d="M95.105,253.301c0-91.2,70.4-137.6,156-137.6c86.4,0,156,45.6,156,137.6s-70.4,200-156,200"/>
<path style="fill:#CADDEA;" d="M251.105,116.501c86.4,0,156,45.6,156,137.6s-70.4,200-156,200"/>
<circle style="fill:#FFFFFF;" cx="190.305" cy="125.301" r="60.8"/>
<path style="fill:#E5F2F9;" d="M190.305,64.501c33.6,0,60.8,27.2,60.8,60.8s-27.2,60.8-60.8,60.8s-60.8-27.2-60.8-60.8"/>
<circle style="fill:#CADDEA;" cx="311.905" cy="125.301" r="60.8"/>
<g>
	<path style="fill:#3DE09D;" d="M190.305,42.101c-10.4,0.8-18.4,4.8-17.6,10.4l36.8-2.4
		C208.705,44.501,200.705,41.301,190.305,42.101z"/>
	<path style="fill:#3DE09D;" d="M311.905,42.101c10.4,0.8,18.4,4.8,17.6,10.4l-36.8-2.4
		C293.505,44.501,301.505,41.301,311.905,42.101z"/>
</g>
<g>
	<path style="fill:#FFFFFF;" d="M183.905,123.701c-24,0-44,5.6-44,12.8s20,4,44,4s44,3.2,44-4
		C227.905,129.301,207.905,123.701,183.905,123.701z"/>
	<path style="fill:#FFFFFF;" d="M318.305,123.701c-24,0-44,5.6-44,12.8s20,4,44,4s44,3.2,44-4
		C362.305,129.301,343.105,123.701,318.305,123.701z"/>
</g>
<g>
	<path style="fill:#CADDEA;" d="M211.905,114.101c0,9.6-8,17.6-17.6,17.6s-17.6-8-17.6-17.6s8-17.6,17.6-17.6
		C203.905,96.501,211.905,104.501,211.905,114.101z"/>
	<path style="fill:#CADDEA;" d="M328.705,114.101c0,9.6-8,17.6-17.6,17.6s-17.6-8-17.6-17.6s8-17.6,17.6-17.6
		C320.705,96.501,328.705,104.501,328.705,114.101z"/>
</g>
<path style="fill:#1E4784;" d="M211.905,109.301c0,9.6-8,17.6-17.6,17.6s-17.6-8-17.6-17.6s8-17.6,17.6-17.6
	C203.905,90.901,211.905,98.901,211.905,109.301z"/>
<path style="fill:#00233F;" d="M193.505,90.901c9.6,0,17.6,8,17.6,17.6s-8,17.6-17.6,17.6"/>
<path style="fill:#1E4784;" d="M328.705,109.301c0,9.6-8,17.6-17.6,17.6s-17.6-8-17.6-17.6s8-17.6,17.6-17.6
	C320.705,90.901,328.705,98.901,328.705,109.301z"/>
<path style="fill:#00233F;" d="M310.305,90.901c9.6,0,17.6,8,17.6,17.6s-8,17.6-17.6,17.6"/>
<polygon style="fill:#EF9D18;" points="284.705,140.501 251.105,166.901 217.505,140.501 251.105,123.701 "/>
<polygon style="fill:#ED751B;" points="284.705,140.501 251.105,166.901 217.505,140.501 251.105,151.701 "/>
<g>
	<circle style="fill:#FFFFFF;" cx="251.105" cy="210.901" r="7.2"/>
	<circle style="fill:#FFFFFF;" cx="251.105" cy="253.301" r="7.2"/>
	<circle style="fill:#FFFFFF;" cx="251.105" cy="294.901" r="7.2"/>
	<circle style="fill:#FFFFFF;" cx="251.105" cy="337.301" r="7.2"/>
</g>
<g>
	
		<ellipse transform="matrix(-0.3043 -0.9526 0.9526 -0.3043 259.6125 233.785)" style="fill:#2264B2;" cx="215.178" cy="22.09" rx="8" ry="30.401"/>
	
		<ellipse transform="matrix(-0.7756 -0.6313 0.6313 -0.7756 18.9585 395.2784)" style="fill:#2264B2;" cx="79.746" cy="194.269" rx="11.201" ry="23.201"/>
</g>
<g>
</g>
<g>
</g>
<g>
</g>
<g>
</g>
<g>
</g>
<g>
</g>
<g>
</g>
<g>
</g>
<g>
</g>
<g>
</g>
<g>
</g>
<g>
</g>
<g>
</g>
<g>
</g>
<g>
</g>
</svg>
